<svg xmlns="http://www.w3.org/2000/svg" version="1.1" xmlns:xlink="http://www.w3.org/1999/xlink" xmlns:svgjs="http://svgjs.dev/svgjs" width="1440" height="1080" preserveAspectRatio="none" viewBox="0 0 1440 1080"><g mask="url(&quot;#SvgjsMask1044&quot;)" fill="none"><path d="M0 606.82L10 664.97L20 634.96L30 636.18L40 632.63L50 745.11L60 846.54L70 758.65L80 757.64L90 657.4L100 668.31L110 764.34L120 806.7L130 852.97L140 893.73L150 836.43L160 901.58L170 898.72L180 815.68L190 862.49L200 917.54L210 819.75L220 953.25L230 973.35L240 1068.2L250 977.33L260 861.56L270 885.78L280 769.63L290 643.91L300 709.74L310 838.82L320 958.75L330 1070.12L340 964.72L350 913.64L360 919.38L370 894.56L380 819.43L390 934.8L400 953.37L410 878.28L420 750.45L430 882.22L440 774.15L450 838.89L460 838.79L470 968.36L480 1034.8L490 926.67L500 1022.16L510 944.94L520 908.6L530 800.61L540 921.61L550 844.9L560 741.5L570 725.8L580 776.51L590 907.6L600 950.61L610 825.55L620 840.85L630 799.21L640 775.79L650 667.1L660 555.87L670 616.77L680 509.57L690 642.24L700 585.05L710 621.58L720 675.88L730 601.29L740 618.7L750 532.47L760 599.59L770 612.31L780 666.51L790 593.86L800 713.08L810 704.99L820 624.97L830 722.58L840 773.96L850 891.61L860 1001.07L870 930.62L880 948.42L890 842.74L900 879.88L910 854.11L920 869.54L930 742.59L940 670L950 563.46L960 557.33L970 493.2L980 558.96L990 661.52L1000 773.9L1010 864.23L1020 757.46L1030 890.87L1040 960.04L1050 916.95L1060 869.94L1070 833.67L1080 827.65L1090 944.22L1100 954.93L1110 910.55L1120 783.71L1130 682.37L1140 731.08L1150 721.21L1160 621.6L1170 580.93L1180 576.3L1190 450.27L1200 396.8L1210 357.19L1220 438.75L1230 416.47L1240 292.06L1250 219.27L1260 288.07L1270 171.22L1280 287.66L1290 411.71L1300 515.78L1310 386.05L1320 446.36L1330 541.76L1340 480.18L1350 596.99L1360 659.43L1370 739.9L1380 808.92L1390 833.77L1400 880.15L1410 840.24L1420 796.92L1430 752.04L1440 871.75" stroke="#224b75" stroke-width="2"></path><path d="M0 606.82L10 664.97L20 634.96L30 636.18L40 632.63L50 745.11L60 846.54L70 758.65L80 757.64L90 657.4L100 668.31L110 764.34L120 806.7L130 852.97L140 893.73L150 836.43L160 901.58L170 898.72L180 815.68L190 862.49L200 917.54L210 819.75L220 953.25L230 973.35L240 1068.2L250 977.33L260 861.56L270 885.78L280 769.63L290 643.91L300 709.74L310 838.82L320 958.75L330 1070.12L340 964.72L350 913.64L360 919.38L370 894.56L380 819.43L390 934.8L400 953.37L410 878.28L420 750.45L430 882.22L440 774.15L450 838.89L460 838.79L470 968.36L480 1034.8L490 926.67L500 1022.16L510 944.94L520 908.6L530 800.61L540 921.61L550 844.9L560 741.5L570 725.8L580 776.51L590 907.6L600 950.61L610 825.55L620 840.85L630 799.21L640 775.79L650 667.1L660 555.87L670 616.77L680 509.57L690 642.24L700 585.05L710 621.58L720 675.88L730 601.29L740 618.7L750 532.47L760 599.59L770 612.31L780 666.51L790 593.86L800 713.08L810 704.99L820 624.97L830 722.58L840 773.96L850 891.61L860 1001.07L870 930.62L880 948.42L890 842.74L900 879.88L910 854.11L920 869.54L930 742.59L940 670L950 563.46L960 557.33L970 493.2L980 558.96L990 661.52L1000 773.9L1010 864.23L1020 757.46L1030 890.87L1040 960.04L1050 916.95L1060 869.94L1070 833.67L1080 827.65L1090 944.22L1100 954.93L1110 910.55L1120 783.71L1130 682.37L1140 731.08L1150 721.21L1160 621.6L1170 580.93L1180 576.3L1190 450.27L1200 396.8L1210 357.19L1220 438.75L1230 416.47L1240 292.06L1250 219.27L1260 288.07L1270 171.22L1280 287.66L1290 411.71L1300 515.78L1310 386.05L1320 446.36L1330 541.76L1340 480.18L1350 596.99L1360 659.43L1370 739.9L1380 808.92L1390 833.77L1400 880.15L1410 840.24L1420 796.92L1430 752.04L1440 871.75L1440 1080L0 1080z" fill="url(&quot;#SvgjsLinearGradient1045&quot;)"></path></g><defs><mask id="SvgjsMask1044"><rect width="1440" height="1080" fill="#ffffff"></rect></mask><linearGradient x1="50%" y1="0%" x2="50%" y2="100%" id="SvgjsLinearGradient1045"><stop stop-opacity="0.65" stop-color="#224b75" offset="0"></stop><stop stop-opacity="0" stop-color="#508dcc" offset="0.8"></stop></linearGradient></defs></svg>